<svg t="1746871988360" class="icon" viewBox="0 0 1024 1024" version="1.1" xmlns="http://www.w3.org/2000/svg" p-id="856" width="200" height="200"><path d="M469.767252 616.588143c-27.472815 69.911119-55.239977 109.847472-83.324596 119.83825-26.843982 10.605015-52.752621 11.848085-77.708888 3.745021-15.608918-6.877022-26.535039-17.173094-32.768632-30.894297-5.614491-16.225588-3.437295-29.332554 6.555916-39.324548 32.445094-31.202024 67.409167-71.154189 104.856948-119.83825 23.713198-32.44631 46.183326-72.397259 67.409167-119.837033-23.098961 1.258882-46.197921 4.064911-69.28107 8.426602-54.302201 9.363161-91.751198 25.59848-112.348207 48.684061-13.737016 15.608918-23.407904 21.227058-29.022395 16.851988-6.875806-4.989307-5.31163-18.725107 4.680364-41.194018 25.5851-61.163411 71.154189-103.295205 136.690237-126.394166 24.343247-8.10428 53.366858-12.478134 87.070833-13.108183 48.684061-1.241853 99.238808 1.260098 151.66789 7.490043 48.057661 6.246973 85.198931 7.184749 111.412864 2.809678 29.330122 1.873119 51.800249-5.925867 67.410384-23.406687 9.361945-10.606231 16.850771-14.658979 22.470128-12.170407 6.859994 4.37507 8.103063 16.851988 3.745021 37.450213-9.363161 34.334025-28.408158 60.240231-57.109447 77.706456-18.112086 12.493946-40.259891 19.983988-66.473824 22.470128-9.990778 1.258882-22.468912 1.873119-37.448997 1.873119-35.575878 93.01008-57.434202 161.970044-65.537265 206.910299-2.501952 11.863897-1.564176 20.918115 2.808462 27.14806 4.361691 7.492475 8.736761 11.23628 13.108183 11.23628 11.849301-0.614237 27.459435-7.491259 46.809726-20.598225 22.470128-14.352469 40.567618-30.895514 54.303417-49.619404 10.606231-11.235064 18.096274-14.658979 22.470128-10.300937 6.231161 6.875806 2.808462 20.598225-10.299721 41.192802-21.855891 34.335241-46.197921 61.795893-73.026091 82.390469-23.72901 17.466225-49.005167 26.213933-75.836986 26.213933-29.960171-0.627616-51.813629-9.684268-65.533616-27.149276-16.240183-20.597009-9.991994-61.791027 18.72389-123.582055 19.339344-43.067137 39.628626-98.305897 60.854468-165.715065-18.725107-1.873119-39.322116-3.745021-61.792244-5.616924-2.501952-0.614237-4.682797-0.614237-6.552267 0C508.150376 503.93221 488.492359 566.03218 469.767252 616.588143z" fill="#272636" p-id="857"></path></svg>